<?xml version="1.0" encoding="UTF-8"?>
<svg id="Layer_1" xmlns="http://www.w3.org/2000/svg" version="1.1" viewBox="0 0 1920 1080">
  <!-- Generator: Adobe Illustrator 30.1.0, SVG Export Plug-In . SVG Version: 2.1.1 Build 136)  -->
  <defs>
    <style>
      .st0 {
        fill: #fff;
      }
    </style>
  </defs>
  <g>
    <path d="M303.87,555.88c-4.72-1.68-6.93-5.32-6.67-10.24.47-8.77,2.35-17.03,4.43-25.99-7.26,7.44-12.72,15.55-18.31,23.95-3.95,5.94-7.48,11.77-12.31,17.09-1.98,2.17-10.4,4.12-11.26,2.03-1.06-2.56,4.03-15.53,5.46-18.91l17.58-41.59c3.56-8.43,7.55-16.21,10.66-24.81.62-1.72-.69-4.29,1.61-5.79.91-.59,1.65-2.39,2.18-4.01l-11.38.95c-.04,1.85-.34,2.99-1,4.48l-11.64,26.59-16.66,38.15c-4.2,9.6-7.89,19.09-11.25,28.94-.94,2.75.48,5.51-2.67,7.59-4.6,3.04-9.96,1.51-11.54-.79-.66-.96-.4-2.91.04-4.01l5.56-13.82c10.54-26.23,21.78-51.81,33.47-77.54-.42-5.1,2.58-4.54,3.63-8.19l-17.74,2.12c-8,.96-18.53,1.77-25.72-1.26-3.1-1.3-3.28-3.96-2.9-6.59.46-3.16,1.76-4.65,4.75-5.64,3.56-1.18,7.66-2.53,11.1-.18l-1.07,1.75c-2.03,3.32,25.47-1.16,28.06-1.52,20.44-2.81,40.5-4,61.15-4.85,1.92-.08,4.51.56,6,1.27,2.28,3.65,1.38,8.54-1.83,11.25-1.92.83-4.84-.53-6.84-.44l-21.56.96c.23.93.69,2.5.47,3.14-2.31,6.59-5.13,13.6-7.98,20.05l-9.53,21.55c-1.2,2.72-2.42,5.26-3.29,7.8,5.77-5.43,11.84-14.88,19.85-13.52,2.75.47,5.66,2.28,7.45,5.24.09,2.63,0,5.24-.69,7.76-2.26,8.38-4.27,16.33-5.3,25.43l22.09-21.21c5.02-4.82,17.95-23.98,28.34-12.63,1.88,2.06,2.82,4.56,1.54,7.5-3.19,7.3-8.63,13.53-15.65,17.36-3.5,1.91-6.76,1.78-10.45.05-.78,2.33-2.21,9.73-.26,10.67,3.47,1.66,11.4-2.89,14.63-5.53,6.54-5.35,12.61-10.83,18.83-16.58.68-.63,1.89-1.59,2.69-1.52,1.21.11,5.87,3.05,5.89,4.8,0,.52-.57,1.73-.99,2.11l-17.75,15.95c-3.8,3.41-8.27,5.96-13.03,7.41-8.23,2.51-16.59-1.39-19.44-9.76l-10.91,11.09c-2.74,2.79-6.2,3.19-9.86,1.88ZM288.51,464.51l13-1.12,8.86-.52,7.79-.49,10.47-.38c-2.4-2.11-4.82-.48-7.17-.42-3.67.09-7.36-.04-10.98.24l-6.73.53-6.1.52-6.64.57-6.62.57c-1.7.15-3.42.46-5.06.76,3.07.3,5.84.01,9.18-.27ZM248.4,469.05l7.19-.99c-1.57-.57-3.3.05-5.06.09l-13.36.28c3.64,1.22,7.35,1.15,11.23.62ZM252.84,471.16c8.25-.95,15.4-1.73,22.78-3.02-1.94-.29-3.79-.12-5.68.13l-12.74,1.68c-1.6.21-3.51-.3-4.36,1.22ZM291.2,503.25c3.39-7.24,6.39-14.05,9.48-21.73-1.32,1.55-2.14,2.89-3.08,4.45l2.68-7.84c-2.26,3.88-3.83,7.44-5.38,11.26-1.91,4.71-4.16,8.77-5.69,13.83l2.79-4.38c-.4,1.8-.68,2.93-.8,4.42ZM270.44,483.07l-16.45,36.49,1.2.54,16.45-36.49-1.2-.54ZM290.3,519.57c3.29-2.33,6.01-5.15,8.33-8.22-3.31,2.4-5.96,4.9-8.33,8.22ZM304.79,541.81c1.22-9.31,3.85-17.85,5.57-27.17-3.69,9.87-5.48,20.26-6.71,30.75,2.17-.44.98-2.31,1.14-3.58ZM342.84,525.78c3.41-3.05,6.22-5.75,8.13-10.02-1.94,1.36-10.73,7.66-8.13,10.02ZM245.62,537.33c3.14-6.09,5.64-12.06,7.67-18.16-3.27,6.06-5.81,11.92-7.67,18.16ZM279.22,537.44l13.01-17.17c-5.32,4.94-9.8,10.65-13.01,17.17ZM273.86,539.69c2.53-5.34,4.75-10.65,6.52-16.16-2.95,5.31-5.07,10.49-6.52,16.16ZM251.94,523.93l-17.74,43.86,1.27.51,17.74-43.86-1.27-.51ZM308.23,548.4l18.25-17.81c-2.32-1.34-2.69.92-3.65,2.13-4.51,5.7-10.6,9.75-14.6,15.68ZM232.39,570.03c2.77-5.09,4.83-10.02,6.4-15.89-2.57,4.93-4.69,10.25-6.4,15.89Z"/>
    <path class="st0" d="M288.51,464.51c-3.33.29-6.11.57-9.18.27,1.63-.3,3.36-.62,5.06-.76l6.62-.57,6.64-.57,6.1-.52,6.73-.53c3.62-.29,7.3-.15,10.98-.24,2.35-.06,4.76-1.68,7.17.42l-10.47.38-7.79.49-8.86.52-13,1.12Z"/>
    <path class="st0" d="M232.39,570.03c1.7-5.64,3.83-10.95,6.4-15.89-1.57,5.87-3.63,10.8-6.4,15.89Z"/>
    <polygon class="st0" points="251.94 523.93 253.21 524.44 235.48 568.3 234.21 567.79 251.94 523.93"/>
    <polygon class="st0" points="270.44 483.07 271.64 483.61 255.19 520.09 253.99 519.56 270.44 483.07"/>
    <path class="st0" d="M291.2,503.25c.12-1.49.4-2.63.8-4.42l-2.79,4.38c1.54-5.06,3.78-9.12,5.69-13.83,1.55-3.82,3.12-7.38,5.38-11.26l-2.68,7.84c.94-1.56,1.76-2.9,3.08-4.45-3.08,7.68-6.08,14.49-9.48,21.73Z"/>
    <path class="st0" d="M304.79,541.81c-.17,1.27,1.03,3.14-1.14,3.58,1.23-10.49,3.01-20.88,6.71-30.75-1.72,9.32-4.35,17.86-5.57,27.17Z"/>
    <path class="st0" d="M308.23,548.4c4-5.93,10.09-9.97,14.6-15.68.96-1.22,1.33-3.48,3.65-2.13l-18.25,17.81Z"/>
    <path class="st0" d="M252.84,471.16c.85-1.53,2.76-1.01,4.36-1.22l12.74-1.68c1.9-.25,3.74-.41,5.68-.13-7.38,1.29-14.53,2.08-22.78,3.02Z"/>
    <path class="st0" d="M279.22,537.44c3.21-6.52,7.69-12.23,13.01-17.17l-13.01,17.17Z"/>
    <path class="st0" d="M248.4,469.05c-3.88.53-7.6.6-11.23-.62l13.36-.28c1.76-.04,3.49-.66,5.06-.09l-7.19.99Z"/>
    <path class="st0" d="M245.62,537.33c1.86-6.24,4.4-12.1,7.67-18.16-2.04,6.1-4.53,12.08-7.67,18.16Z"/>
    <path class="st0" d="M273.86,539.69c1.45-5.68,3.57-10.85,6.52-16.16-1.77,5.51-3.99,10.83-6.52,16.16Z"/>
    <path class="st0" d="M290.3,519.57c2.37-3.32,5.02-5.82,8.33-8.22-2.32,3.07-5.05,5.88-8.33,8.22Z"/>
  </g>
  <path class="st0" d="M1524.1,468.23c-4.57.12-7.59.85-10.95.28,4.03-1.36,7.21-1.59,11.43-1.85l15.55-.94c.43-.03,2.13.54,2.47.59s-1.42,1.47-1.76,1.48l-16.73.44Z"/>
  <path class="st0" d="M1480.56,500.37c-4.44.19-8.23.78-11.86.13,1.2-.49,33.93-4.61,32.24-.98l-20.38.85Z"/>
  <path class="st0" d="M1521.95,430.41c-3.71,7.88-5.53,15.44-10.77,21.59l9.05-21.86c.91-1.77,2.22-2.31,1.72.27Z"/>
  <path class="st0" d="M1515.5,450.84c1.67-6.67,4.28-12.49,7.86-18.26-1.73,6.55-4.2,12.28-7.86,18.26Z"/>
  <g>
    <path d="M957.41,495.18c4.54,2.96,8.74,4.32,10.98,9.73,4.53,10.93,4.11,23.11-.35,34.49,1.23,1.19,4.32,2.28,5.87,2.1,12.23-1.48,20.1-9.61,24.41-20.12,3.95-9.62,8.12-18.31,12.68-27.86.93-1.94,6.31-2.17,7.94-1.46l-.06,5.06,2.3-4.81,5.34,2.74c2.03,1.04,5.46,2.81,4.94,6.2-1.24,8.12-16.21,36.66-18.62,47.67,11.7-10.4,31.6-39.13,40.79-45.74,5.67-4.08,18.75,2.75,19.26,5.85.29,1.74-.77,4.7-1.48,6.58-5.26,13.82-9.75,27.23-13.06,42.63,16.66-10.31,30.27-22.58,40.82-37.81,5.89-8.5,9.34-28.73,17.32-29.91,5.98-.89,12.49,4.75,14.68,9.43l-9.47,23.03c12.01-8.71,21.51-19.26,35.89-10.69,16.61,9.9,7.27,27.15,9.92,44.11,14.01-10.16,24.71-21.17,37.09-31.68l6.48-5.5,14.53-16.8c3.54-4.09,9.27-7.07,14.77-6.92,6.67.19,11.07,4.87,15.73,9.59,2.65-3.43,7.36-7.37,9.26-11.5,8.45-18.32,17.01-36.13,23.94-55.21,1.43-3.92,0-9.56,4.62-12.74,2.37-1.63,2.91-7.15,6.03-7.87l3.75-.86c.91-.21,1.91,1.24,2.77,2.31.56-.51,2.08-1.63,3.03-1.77s3.08,1.55,2.71,2.44l-.79,1.93c-.12.29.4.15.61.05.92-1.24,1.37-2.3,1.98-2.02s2.03,2.37,1.76,3.2c-2.88,9.05-7.42,21.06-11.58,30.48l-13.37,30.22-10.33,23.22c-4.98,11.18-43.22,99.8-36.03,103.79l3.42,1.89c1.4.96.96,4.6-1.01,6.09-5.81,4.37-17.56,4.64-21.76-2.58-5.84-10.03,10.01-48.79,14.28-60.55-3.41,2.94-6.76,5.91-10.33,8.59-10.12,7.57-23.34,4.83-30.35-6.15-12.52,8.91-23.09,22.45-39.08,12.76-7.24-4.38-11.7-11.4-11.5-20.15l.51-23.01c-10.16,7.23-17.68,15.64-25.5,24.61l-17.31,19.86c-3.68,4.23-9.24,4.62-13.97,1.85-3.58-2.09-6.55-5.12-8.83-8.47-12.52,8.97-27.55,15.57-41.17,3.86-4.09-3.52-4.94-9.15-5.55-14.63-14.94,15.44-23.73,24.37-44.09,14.04-3.3-1.67-5.46-4.41-6.68-8.38-9.21,1.68-18.46-.22-25.59-7.43-5.93,7.05-10.95,13.68-17.8,18.78-6.15,4.57-14.53,5.81-20.26.48-14.67-13.65-8.01-37.45,1.43-52.23,5.84-9.14,11.75-17.36,18.44-25.93,1.46-1.87,5.46-3.29,7.56-3.44,2.96-.21,5.25,2.72,8.07,4.55ZM1290.99,464.74c4.76-8.2,8.39-16.17,11.08-25.12-4.8,8-8.31,16.26-11.08,25.12ZM1282.83,489.87c6.25-9.94,9.28-20.54,14.44-30.65,2.84-5.56,8.23-10.3,6.18-17.94l-8.82,20.21c-4.19,9.59-8.48,18.66-11.79,28.37ZM921.24,529.51l21.74-32.45c-8.85,10.03-17.09,20.74-21.74,32.45ZM999.6,524.4c4.77-7.61,8.23-15.08,10.86-23.5-4.63,7.62-8.43,15.01-10.86,23.5ZM1002.97,524.48c4.07-6.16,6.8-11.92,8.45-18.62-4.11,5.89-6.94,12.19-8.45,18.62ZM1005.49,528.51c2.92-6.01,5.53-11.83,7.91-19.09-3.89,5.44-7.11,11.81-7.91,19.09ZM1248.27,515.81l-3.39-3.3c-2.93-2.85-27.22,30.22-28.21,36.28,12.64-9.08,22.15-21.12,31.6-32.99ZM929.27,555.1c9-5.81,14.24-13.32,19.79-20.52l-3.35-12.9c-5.95,7.98-17.63,24.5-16.45,33.42ZM1246.24,582.31l3.79-11.49-3.01,1.48,17.61-47.18c-6.53,11.23-10.14,23.38-15.04,35.54-4.43,11.97-9.91,23.33-11.16,36.22l4.65-12.98c1.46-.2,2.91-.84,3.16-1.59ZM1118.95,538.5l11.57-12.48c-8,5.62-14.05,12.38-19.53,20.37,3.34-1.92,5.57-4.77,7.96-7.89ZM1164.05,526.84l.1,30.81c-.05-4.74,3.91-30.33-.1-30.81ZM1182.39,555.34c7.38-4.54,12.1-9.16,16.71-15.15-1.05-.22-18.7,15.68-16.71,15.15Z"/>
    <path class="st0" d="M1327.63,515.78c-9.5,12-18.83,23.51-31.59,33.17,1.38-7.2,24.22-37.57,27.72-36.46.83.26,1.77,1.25,3.87,3.29Z"/>
    <path d="M1335.35,574.99c-9.88-2.79-15.58-11.58-16.55-19.91-3.76,3.67-6.83,6.6-10.12,9.03-9.53,7.06-21.53,5.25-28.89-3.58-4.25-5.09-5.41-11.39-2.48-17.83,7-15.4,16.87-29.28,28.86-41.36,3.7-3.73,9.56-6.38,14.54-5.77,6.32.78,10.18,4.94,14.77,9.67l8.66-10.63c1.15-1.42,4.13-3.41,5.81-3.32,2.23.13,5.02,1.87,6.88,3.41,4.93,4.08,7.03,9.81,4.1,15.9-7.99,16.57-19.41,29.52-23.83,46.95,11.47-5.31,20.55-11.59,30.64-18.03,8.99-5.73,18.08-12.26,25.73-19.29.82-.75,3.49-2.14,3.92-3.27l16.15-43c-10.29-2.18-35.53,4.62-39.25-.33-.85-1.13-1.11-4.91.25-5.16l3.52-.62-2.62-1.55c-.34-.2-.26-.53.17-.69l3.05-1.08c.48-.17-1.79-1.55-1.58-2.01.86-1.97,4.36-5.28,6.6-5.5l15.67-1.55,22.28-1.25,12.57-28.66c2.13-4.86,4.81-9.34,10.94-7.82v3.06s2.32-2.86,2.32-2.86c.57-.7,2.96-.05,4.02.32,2.98,1.04,4.69,3.96,3.85,7.2-2.46,9.6-6.12,18.13-10.51,27.98,10.97.16,49.27-4.85,56.57.74.97,3.5-.73,8.64-3,10.75l-9.9-.77,9.32,2.91-5.88,1.34,2.96,2.53-7.27,1.04c-1.36,3.94-3.16,9.28-6.75,12.14-3.37,2.69-8.76,1.53-11.69-.46-3.71-2.52-3.58-6.59-3.53-12.21l-23.39,1.2c-4.11.21-6.45,1.2-8.03,5.29l-28.86,74.77c-6.98,18.09-14.31,35.98-18.54,54.5l2.87,3.56,1.8-.28c.66-.1,1.43,3.18.98,3.89-4.69,7.22-18.6,11.25-25.92,3.57-7.12-7.47,12.03-53.25,16.19-64.97l-29.48,18.73c-4.96,3.15-11.79,4.99-17.95,3.25ZM1445.95,432.41c.5-2.58-.81-2.04-1.72-.27l-9.05,21.86c5.23-6.15,7.06-13.71,10.77-21.59ZM1439.5,452.84c3.65-5.98,6.12-11.71,7.86-18.26-3.58,5.77-6.19,11.59-7.86,18.26ZM1448.1,470.23l16.73-.44c.34,0,2.1-1.42,1.76-1.48s-2.03-.62-2.47-.59l-15.55.94c-4.22.26-7.39.48-11.43,1.85,3.36.57,6.38-.16,10.95-.28ZM1394.56,472.37l20.38-.85c1.69-3.62-31.04.5-32.24.98,3.63.65,7.42.05,11.86-.13ZM1426.92,472.68l-21.2,54.99,2.23.86,21.2-54.99-2.23-.86ZM1327.63,515.78c-2.1-2.04-3.04-3.03-3.87-3.29-3.5-1.1-26.33,29.26-27.72,36.46,12.76-9.67,22.08-21.18,31.59-33.17ZM1380.61,598.85l22.21-60.28c-9.36,18.64-17.33,39.03-22.21,60.28ZM1387.59,539.6l-31.87,21.66c2.84.02,35.05-20.43,31.87-21.66Z"/>
    <path class="st0" d="M1380.61,598.85c4.88-21.25,12.85-41.64,22.21-60.28l-22.21,60.28Z"/>
    <polygon class="st0" points="1426.92 472.68 1429.15 473.54 1407.96 528.52 1405.73 527.67 1426.92 472.68"/>
    <path class="st0" d="M1387.59,539.6c3.18,1.24-29.03,21.68-31.87,21.66l31.87-21.66Z"/>
    <path d="M1575.05,571.48c-4.75,5.5-10.91,5.08-16.2,1.61-4.16-2.73-7.57-6.16-6.9-12.03-8.26.33-16.32-1.56-22.81-8.11-8.19,10.31-24.35,31.41-38.07,19.28-6.13-5.42-7.8-13.02-9-21.15-10.19,8.33-37.65,34.09-48.75,21.43-6.94-7.92-7.44-19.84-3.59-29.71,6.24-15.97,13.58-30.66,21.45-45.9,1.01-1.96,5.02-4.16,6.99-4.28,2.15-.13,5.29,1.93,7.21,3.51,4.91,4.05,6.84,9.81,3.9,15.83-8.12,16.64-18.74,28.6-23.94,46.66,7-2.43,41.64-31.72,43.86-34.75l21.31-29.12c1.85-2.52,5.19-3.82,7.93-4.16,3.47-.43,5.55,3.26,8.29,4.78,4.7,2.6,8.89,4.41,11.11,10.09,4.22,10.81,3.78,22.69-.61,33.96,1.47,1.38,4.77,2.3,6.83,1.96,11.47-1.84,19.4-9.72,23.67-19.91l9.3-22.18c1.27-3.02,4.22-8.18,7.7-8.75,5.99-.99,12.7,4.57,14.92,9.37l-9.5,23.06c7.54-5.3,12.89-11.18,21.43-13.28,11.88-2.92,24.63,7.22,24.52,19.4l-.25,27.25c15.99-11.04,28.17-22.84,41.76-35.79-.85,2.37-.57,5.58.87,5.95,2.4-2.09,4.31-3.93,5.86-4.08-7.08,7.37-13.09,14.07-20.94,20.7,1.73-6.36,7.36-7.51,11.22-13.32,1.33.26.05.01-.53-.1l-11.31,11.01c-.31.3-.29.66.25,2.41l-7.13,6.99c-2.33,2.28-5.18,3.41-6.57,6.84,5.39-3.66,9.85-7.56,14.46-11.98l22.55-21.66,3.46,3.62c.97,1.02,2.02,2.19,2.58,2.95s-.45,3.55-1.13,4.25c-9.84,10.22-36.35,38.13-49.82,39.77-11.94,1.45-23.72-8.53-24.61-20.24-.68-9.04.16-16.75.42-26.06-9.67,6.82-16.74,14.37-23.86,22.62l-18.33,21.24ZM1494.67,522.21c6.54-8.06,11.95-15.77,17.29-24.88-6.83,7.12-13.08,15.56-17.29,24.88ZM1577.51,532.2c4.65-7.75,8.22-15.44,10.14-24.14-4.12,7.92-7.63,15.66-10.14,24.14ZM1498.55,555.05c9.07-5.82,14.3-13.44,19.74-20.56l-3.27-12.88c-6.01,7.98-17.96,24.99-16.46,33.44ZM1595.55,530.31c2.19-2.01,4.76-3.49,6.05-6.37-8.17,5.75-15.33,12.21-21.05,21.33,5.46-4.15,9.66-10.07,15-14.95ZM1634.11,554.32c-.48-8.44.91-18.83-1.2-27.81-1.56,10.33-.84,19.68-.79,30.12.32-.38,1.62-1.8,1.99-2.31ZM1660.82,544.23c-1.1-5.18-19.73,12.08-16.32,12.85,6.5-4.02,10.83-7.82,16.32-12.85Z"/>
    <path class="st0" d="M1498.55,555.05c-1.49-8.45,10.46-25.46,16.46-33.44l3.27,12.88c-5.43,7.12-10.66,14.74-19.74,20.56Z"/>
    <path class="st0" d="M1634.11,554.32c-.37.51-1.67,1.93-1.99,2.31-.05-10.44-.77-19.79.79-30.12,2.11,8.98.72,19.37,1.2,27.81Z"/>
    <path class="st0" d="M1660.82,544.23c-5.49,5.03-9.82,8.83-16.32,12.85-3.42-.76,15.22-18.02,16.32-12.85Z"/>
    <path class="st0" d="M1494.67,522.21c4.21-9.32,10.47-17.76,17.29-24.88-5.34,9.1-10.75,16.82-17.29,24.88Z"/>
    <path class="st0" d="M1595.55,530.31c-5.33,4.88-9.54,10.8-15,14.95,5.72-9.11,12.88-15.58,21.05-21.33-1.29,2.89-3.86,4.37-6.05,6.37Z"/>
    <path class="st0" d="M1577.51,532.2c2.51-8.48,6.02-16.22,10.14-24.14-1.92,8.7-5.48,16.39-10.14,24.14Z"/>
  </g>
  <path d="M785.03,648.87c-10.59-6.67-.94-15.06-.95-21.11,0-4.8,3.83-5.21,5.42-8.08,7.35-13.28,13.38-26.93,20.1-41.83-6.56-.31-27.73,4.6-28-6.86-.1-4.08.79-12.18,4.92-14.29s8.36-3.37,13.71-5.3c.02,1.73-2.28,3-4.64,4.85l6.14-1.91.78,1.44c.29.53,2.43,1.03,3.26.87l14.77-2.81,39.74-80.29-35.62,4.45c-3.29.41-8.28.67-10.91-1.23-3.32-2.4-5.93-8.21-5.6-11.87.17-1.92.39-3.73.42-4.85,1.32-5.8,8.9-3.61,12.89-4.1l50.84-6.14,10.95-1.1,11.15-.93,15.07-1,40.48-.41c12.06-.12,16.66,13.16,15.02,20.51-.56,2.49-4.54,5.23-6.6,6.12-.61-2.49-.65-2.82-2.19-.08l-4.91-4.99c-24.62.06-49.09-.39-73.27,3.8,2.23,4.96,2.02,7.26.17,10.98l-33.21,66.82c17.75-1.73,33.99-3.32,51.41-3.93,4.2-.15,7.55,3.46,7.17,7.64-.31,3.45-1.31,7.93-2.28,10.51-2.68,7.08-7.83,5.08-13,5.04-18.3-.15-35.94,1.92-54.2,4.4l-19.66,43.02c-5.99,13.11-12.08,25.09-19.52,37.89-.98-1.54-.71-2.39-.76-4.99l-2.39,5.72c-.37-.01-2.78-.94-4.04-1.54-.88-.42.1-2.16.81-3.7l-2.66,1.68c-.41.26-.64-1.43-.79-2.41ZM885.66,451.7l11.73-.88,15.12-.98,31.18-.69c-5.28-3.61-10.78-1.05-15.96-.67-6.83.05-13.46-.03-20.12.38l-15.3.94c-3.23.2-6.8.46-10.11.85-20.51,2.4-40.26,4.25-60.74,8.21l64.19-7.15ZM885.26,454.75l11.13-.96,12.21-.91c10.07-.75,19.95-.29,30.1-.3l7.24-1.77c-8.97-.28-17.98-.58-27.35.02l-16.16,1.03-12.11.93-11.17.82-59.1,8.04c16.36.05,31.75-3.91,48.04-5.08l17.16-1.81ZM867.59,459.61l20.74-2.15,14.24-1.5c-5.27-.6-10.61-.23-16.28.29l-13.13,1.2c-16.43,1.51-32.1,3.58-48.66,6.71,14.19.23,27.97-2.99,43.09-4.56ZM872.48,485.68l-32.09,64.04,2.02,1.01,32.09-64.04-2.02-1.01ZM876.91,555.59l12.85-.54c.34-.01,2-1.36,1.66-1.43s-2.03-.64-2.42-.61l-15.64.98c-11.48,1.3-21.92,1.64-33.29,4.35,8.36.92,15.86-1.49,24.01-1.98l12.83-.77ZM829.72,573.11l-30.48,65.62,2.27,1.05,30.48-65.62-2.27-1.05Z"/>
  <path class="st0" d="M885.26,454.75l-17.16,1.81c-16.29,1.16-31.68,5.13-48.04,5.08l59.1-8.04,11.17-.82,12.11-.93,16.16-1.03c9.37-.6,18.38-.3,27.35-.02l-7.24,1.77c-10.14,0-20.02-.45-30.1.3l-12.21.91-11.13.96Z"/>
  <path class="st0" d="M885.66,451.7l-64.19,7.15c20.48-3.96,40.24-5.81,60.74-8.21,3.31-.39,6.87-.65,10.11-.85l15.3-.94c6.66-.41,13.29-.33,20.12-.38,5.18-.38,10.68-2.94,15.96.67l-31.18.69-15.12.98-11.73.88Z"/>
  <path class="st0" d="M867.59,459.61c-15.12,1.57-28.89,4.79-43.09,4.56,16.56-3.13,32.23-5.2,48.66-6.71l13.13-1.2c5.68-.52,11.01-.89,16.28-.29l-14.24,1.5-20.74,2.15Z"/>
  <polygon class="st0" points="872.48 485.68 874.5 486.69 842.41 550.72 840.4 549.72 872.48 485.68"/>
  <path class="st0" d="M876.91,555.59l-12.83.77c-8.15.49-15.65,2.9-24.01,1.98,11.37-2.71,21.81-3.05,33.29-4.35l15.64-.98c.39-.02,2.09.55,2.42.61s-1.32,1.41-1.66,1.43l-12.85.54Z"/>
  <path d="M428.49,621.08c-25.92,16.69-55.09,20.91-85.56,16.96-12.15-1.57-23.48-5.93-30.91-15.46-5.62-7.2-7.15-16.69-2.12-24.59,1.5-2.35,6.26-.19,7.36,2.13,2.19,4.64,5.31,8.29,10.02,10.33,8.38,3.62,17.22,5.45,26.52,5.86,28.51,1.26,58.69-4.19,79.8-24.52,5.42-5.22,9.95-11.78,11.93-19.04,7.95-29.17-17.84-52.89-37.97-69.84-6.44-5.42-12.77-11.09-16.33-18.94-7.75-17.07-1.54-36.84,14.03-47.3,17.16-11.53,35.98-18.82,56.16-23.58,13.18-3.11,45.07-11.09,54.3,1.08,4.1,5.4,3.39,14.75-.75,19.84-2.63,2.14-6.43,3.59-8.66,5.6l-3.16,2.85c-.86.78-4.28.1-4.77-1.05-1.11-2.66-1.87-6.94-2.48-11.1-8.28.15-16.55,1.82-24.82,3.68-20.7,4.65-40.1,11.29-58.1,22.52-4.37,2.72-9.04,6.74-11.14,11.31,2.66,5.17,6.67,9.36,10.85,12.83,27.97,23.22,49.11,45.55,47.24,84.95-1.09,23.07-12.02,42.98-31.44,55.48ZM485.51,417.27c.95-.16,1.73-1.76,1.22-1.7l-2.4.26c-13.8,2.91-28.08,4.96-41.03,11.13,13.06-3.04,29.3-7.49,42.22-9.68ZM423.77,430.44l25.08-10.8c-16.06,3.85-31.04,10.79-43.86,20.97,6.59-2.85,12.35-6.48,18.78-10.17ZM403.03,613.75c10.5-2.88,20.19-7.81,27.34-14.98l-27.34,14.98ZM402.13,619.02l-29.28,5.53c10.02.29,20.35-1.33,29.28-5.53ZM348.02,629.9c-5.82-1.64-11.25-2.96-17.54-3.96,5.11,3.12,10.72,4.86,17.54,3.96Z"/>
  <path class="st0" d="M423.77,430.44c-6.43,3.69-12.2,7.32-18.78,10.17,12.82-10.18,27.8-17.12,43.86-20.97l-25.08,10.8Z"/>
  <path class="st0" d="M485.51,417.27c-12.92,2.19-29.16,6.65-42.22,9.68,12.95-6.17,27.23-8.22,41.03-11.13l2.4-.26c.51-.05-.26,1.54-1.22,1.7Z"/>
  <path class="st0" d="M403.03,613.75l27.34-14.98c-7.15,7.17-16.84,12.1-27.34,14.98Z"/>
  <path class="st0" d="M402.13,619.02c-8.93,4.2-19.26,5.82-29.28,5.53l29.28-5.53Z"/>
  <path class="st0" d="M348.02,629.9c-6.83.9-12.44-.84-17.54-3.96,6.29,1.01,11.72,2.32,17.54,3.96Z"/>
  <path d="M581.71,558.07c-12.68,7.12-31.95,25.44-46.28,20.76-8.77-2.86-14.1-10.36-16.05-19.06-3.47,2.93-6.86,5.93-10.26,8.47-9.09,6.8-20.57,5.07-27.91-2.93-5.11-5.57-6.13-12.51-2.72-19.66,7.06-14.8,16.55-28.27,28.14-40.03,3.9-3.96,9.94-6.79,15.23-5.99,6.19.94,10.02,5.12,14.43,9.56l8.77-10.74c1.15-1.4,4.36-3.36,6.05-3.16,1.88.23,4.54,1.84,6.24,3.18,5.34,4.21,7.36,10.35,4.13,16.74-8.31,16.43-18.67,28.54-23.73,46.27,11.13-4.87,20.1-11.05,29.73-17.33,7.79-5.07,15.39-9.86,22.27-16.03,2.41-2.16,5.72-4.19,7.66-6.4l14.17-16.07c3.45-3.91,9.2-6.52,14.49-6.13,6.01.44,10.49,4.81,14.46,8.8,2.79-4,5.46-9.83,8.98-13.06,5.85-5.06,15.33-3.43,20.52,1.46-1.47,5.86-3.94,9.97-6.32,14.86-8.19,16.84-14.83,33.71-22.11,51.12l-24.26,58.03,62.75.65c9.32.1,16.55,5.35,18.1,14.77.1,2.31-2.69,6.5-4.81,5.5-4.44-2.09-7.89-3.51-12.56-3.38-10.65.3-20.71.36-31.33.11l-40.91-.98c-9.48,13.95-18.38,29.83-35.09,34.51-21.71,6.08-34.2-11.17-44.02-27.6-2.59-4.34-1.23-8.84,2.12-12.22,6.51-6.57,15.31-9.12,24.73-9.58l38.21-1.88,6.88-14.14,16.44-41.09c-5.52,5.01-12.33,7.99-19.35,6.81-7.52-1.26-13.3-6.56-16.81-14.15ZM528.38,519.78c-1.81-1.73-2.86-2.75-3.59-3.21-3.3-2.05-26.91,29.76-27.89,36.22,12.78-9.48,22.04-21.11,31.48-33.02ZM633.44,519.81c-1.69-1.74-2.89-3.34-3.75-3.26s-2.23,1-3.4,1.7c-9.5,10.3-18.25,20.83-24.39,34.57,12.76-9.36,22.07-21.22,31.54-33.01ZM641.98,525.9l-38.76,93.47,2.35.97,38.76-93.47-2.35-.97ZM548.42,569.99c12.87-5.96,24.3-12.75,34.78-22.21l-34.78,22.21ZM620.25,573.75c3.52-6.11,6.32-12.26,8.05-19.37-3.52,6.11-6.32,12.26-8.05,19.37ZM607.17,605.64c4.76-8.45,8.43-16.77,10.87-26.77-4.43,8.29-7.99,17.32-10.87,26.77ZM553.27,654.87c13.26,2.68,24.1-5.8,29.86-16.42l-21.45.43c-6.34.13-12.45,1.82-16.99,6.24,2.15,3.02,4.75,8.93,8.57,9.75Z"/>
  <path d="M788.18,530.78c4.51,4.72-6.82,13.75-10.76,16.58-13.27,9.55-26.37,18.5-40.34,27.09-5.81,3.57-12.93,6.25-19.53,4.72-9.37-2.17-15.22-9.96-17.46-19.21l-9.79,7.91c-8.78,7.09-20.41,5.69-27.9-2.05-5.35-5.53-6.68-12.59-3.26-19.94,6.93-14.9,16.55-28.33,28.1-40.17,3.88-3.98,9.9-6.85,15.24-6.09,6.17.88,10.11,5.1,14.46,9.56l9.23-11.08c3.64-4.37,8.29-2.68,11.86.31,5.39,4.51,7.18,10.1,4.25,16.9l-9.8,17.01c-5.33,9.25-10.84,17.63-13.97,29.08,11.73-4.94,21.2-11.85,31.5-18.44,9.1-5.82,17.43-11.42,25-19.22l4.92-.84-1.08,5.94,4.97-3.78-1.59,4.57,4.25-2.01-.37,2.84c-.05.35.81.21,2.06.31ZM709.12,519.77c-1.86-1.75-2.93-2.79-3.69-3.2-3.39-1.83-26.8,29.69-27.83,36.3,12.76-9.63,22.08-21.21,31.52-33.11ZM749.88,558.52c8.51-6.45,17.76-10.79,24.84-18.34l-46.06,30.02c7.98-2.39,13.86-7.55,21.22-11.68Z"/>
  <path class="st0" d="M553.27,654.87c-3.83-.82-6.42-6.73-8.57-9.75,4.54-4.42,10.65-6.11,16.99-6.24l21.45-.43c-5.77,10.62-16.6,19.09-29.86,16.42Z"/>
  <path class="st0" d="M528.38,519.78c-9.44,11.9-18.71,23.54-31.48,33.02.98-6.46,24.6-38.28,27.89-36.22.73.45,1.78,1.48,3.59,3.21Z"/>
  <path class="st0" d="M633.44,519.81c-9.47,11.79-18.78,23.64-31.54,33.01,6.14-13.74,14.9-24.27,24.39-34.57,1.16-.7,2.53-1.63,3.4-1.7s2.06,1.52,3.75,3.26Z"/>
  <polygon class="st0" points="641.98 525.9 644.32 526.87 605.56 620.34 603.22 619.37 641.98 525.9"/>
  <path class="st0" d="M548.42,569.99l34.78-22.21c-10.48,9.47-21.91,16.25-34.78,22.21Z"/>
  <path class="st0" d="M607.17,605.64c2.88-9.45,6.44-18.48,10.87-26.77-2.44,10-6.12,18.31-10.87,26.77Z"/>
  <path class="st0" d="M620.25,573.75c1.73-7.11,4.53-13.26,8.05-19.37-1.73,7.11-4.53,13.26-8.05,19.37Z"/>
  <path class="st0" d="M709.12,519.77c-9.44,11.9-18.76,23.47-31.52,33.11,1.03-6.61,24.44-38.13,27.83-36.3.76.41,1.83,1.45,3.69,3.2Z"/>
  <path class="st0" d="M749.88,558.52c-7.36,4.12-13.24,9.28-21.22,11.68l46.06-30.02c-7.08,7.55-16.33,11.89-24.84,18.34Z"/>
</svg>