<svg xmlns="http://www.w3.org/2000/svg" viewBox="230 450 1500 220">
  <g fill="white">
    <path d="M303.9 555.9c-4.7-1.7-6.9-5.3-6.7-10.2.5-8.8 2.4-17 4.4-26-7.3 7.4-12.7 15.6-18.3 24-4 5.9-7.5 11.8-12.3 17.1-2 2.2-10.4 4.1-11.3 2-1-2.6 4-15.5 5.5-18.9l17.6-41.6c3.6-8.4 7.6-16.2 10.7-24.8.6-1.7-.7-4.3 1.6-5.8.9-.6 1.7-2.4 2.2-4l-11.4 1c0 1.9-.3 3-1 4.5l-11.6 26.6-16.7 38.2c-4.2 9.6-7.9 19.1-11.3 28.9-.9 2.8.5 5.5-2.7 7.6-4.6 3-10 1.5-11.5-.8-.7-1-.4-2.9 0-4l5.6-13.8c10.5-26.2 21.8-51.8 33.5-77.5-.4-5.1 2.6-4.5 3.6-8.2l-17.7 2.1c-8 1-18.5 1.8-25.7-1.3-3.1-1.3-3.3-4-2.9-6.6.5-3.2 1.8-4.7 4.8-5.6 3.6-1.2 7.7-2.5 11.1-.2l-1.1 1.8c-2 3.3 25.5-1.2 28.1-1.5 20.4-2.8 40.5-4 61.2-4.9 1.9-.1 4.5.6 6 1.3 2.3 3.7 1.4 8.5-1.8 11.3-1.9.8-4.8-.5-6.8-.4l-21.6 1c.2.9.7 2.5.5 3.1-2.3 6.6-5.1 13.6-8 20.1l-9.5 21.6c-1.2 2.7-2.4 5.3-3.3 7.8 5.8-5.4 11.8-14.9 19.9-13.5 2.8.5 5.7 2.3 7.5 5.2.1 2.6 0 5.2-.7 7.8-2.3 8.4-4.3 16.3-5.3 25.4l22.1-21.2c5-4.8 18-24 28.3-12.6 1.9 2.1 2.8 4.6 1.5 7.5-3.2 7.3-8.6 13.5-15.7 17.4-3.5 1.9-6.8 1.8-10.5 0-.8 2.3-2.2 9.7-.3 10.7 3.5 1.7 11.4-2.9 14.6-5.5 6.5-5.4 12.6-10.8 18.8-16.6.7-.6 1.9-1.6 2.7-1.5 1.2.1 5.9 3.1 5.9 4.8 0 .5-.6 1.7-1 2.1l-17.8 16c-3.8 3.4-8.3 6-13 7.4-8.2 2.5-16.6-1.4-19.4-9.8l-10.9 11.1c-2.7 2.8-6.2 3.2-9.9 1.9z"/><path fill="#fff" d="M288.5 464.5c-3.3.3-6.1.6-9.2.3 1.6-.3 3.4-.6 5.1-.8l6.6-.6 6.6-.6 6.1-.5 6.7-.5c3.6-.3 7.3-.2 11-.2 2.4-.1 4.8-1.7 7.2.4l-10.5.4-7.8.5-8.9.5-13 1.1zm-56.1 105.5c1.7-5.6 3.8-11 6.4-15.9-1.6 5.9-3.6 10.8-6.4 15.9z"/><path fill="#fff" d="M251.9 523.9l1.3.5-17.7 43.9-1.3-.5 17.7-43.9zm18.5-40.8l1.2.5-16.5 36.5-1.2-.5 16.5-36.5z"/><path fill="#fff" d="M291.2 503.3c.1-1.5.4-2.6.8-4.4l-2.8 4.4c1.5-5.1 3.8-9.1 5.7-13.8 1.6-3.8 3.1-7.4 5.4-11.3l-2.7 7.8c.9-1.6 1.8-2.9 3.1-4.5-3.1 7.7-6.1 14.5-9.5 21.7zm13.6 38.6c-.2 1.3 1 3.1-1.1 3.6 1.2-10.5 3-20.9 6.7-30.8-1.7 9.3-4.4 17.9-5.6 27.2zm3.4 6.6c4-5.9 10.1-10 14.6-15.7 1-1.2 1.3-3.5 3.7-2.1l-18.3 17.8zm-55.4-77.3c.9-1.5 2.8-1 4.4-1.2l12.7-1.7c1.9-.3 3.7-.4 5.7-.1-7.4 1.3-14.5 2.1-22.8 3zm26.4 66.2c3.2-6.5 7.7-12.2 13-17.2l-13 17.2zm-30.8-68.4c-3.9.5-7.6.6-11.2-.6l13.4-.3c1.8 0 3.5-.7 5.1-.1l-7.2 1zm-2.8 68.3c1.9-6.2 4.4-12.1 7.7-18.2-2 6.1-4.5 12.1-7.7 18.2zm28.2 2.4c1.5-5.7 3.6-10.9 6.5-16.2-1.8 5.5-4 10.8-6.5 16.2zm16.4-20.1c2.4-3.3 5-5.8 8.3-8.2-2.3 3.1-5.1 5.9-8.3 8.2z"/><path d="M957.4 495.2c4.5 3 8.7 4.3 11 9.7 4.5 10.9 4.1 23.1-.4 34.5 1.2 1.2 4.3 2.3 5.9 2.1 12.2-1.5 20.1-9.6 24.4-20.1 4-9.6 8.1-18.3 12.7-27.9.9-1.9 6.3-2.2 7.9-1.5l-.1 5.1 2.3-4.8 5.3 2.7c2 1 5.5 2.8 4.9 6.2-1.2 8.1-16.2 36.7-18.6 47.7 11.7-10.4 31.6-39.1 40.8-45.7 5.7-4.1 18.8 2.8 19.3 5.9.3 1.7-.8 4.7-1.5 6.6-5.3 13.8-9.8 27.2-13.1 42.6 16.7-10.3 30.3-22.6 40.8-37.8 5.9-8.5 9.3-28.7 17.3-29.9 6-.9 12.5 4.8 14.7 9.4l-9.5 23c12-8.7 21.5-19.3 35.9-10.7 16.6 9.9 7.3 27.2 9.9 44.1 14-10.2 24.7-21.2 37.1-31.7l6.5-5.5 14.5-16.8c3.5-4.1 9.3-7.1 14.8-6.9 6.7.2 11.1 4.9 15.7 9.6 2.7-3.4 7.4-7.4 9.3-11.5 8.5-18.3 17-36.1 23.9-55.2 1.4-3.9 0-9.6 4.6-12.7 2.4-1.6 2.9-7.2 6-7.9l3.8-.9c.9-.2 1.9 1.2 2.8 2.3.6-.5 2.1-1.6 3-1.8s3.1 1.6 2.7 2.4l-.8 1.9c-.1.3.4.2.6.1.9-1.2 1.4-2.3 2-2s2 2.4 1.8 3.2c-2.9 9.1-7.4 21.1-11.6 30.5l-13.4 30.2-10.3 23.2c-5 11.2-43.2 99.8-36 103.8l3.4 1.9c1.4 1 .9 4.6-1 6.1-5.8 4.4-17.6 4.6-21.8-2.6-5.8-10 10-48.8 14.3-60.6-3.4 2.9-6.8 5.9-10.3 8.6-10.1 7.6-23.3 4.8-30.4-6.2-12.5 8.9-23.1 22.5-39.1 12.8-7.2-4.4-11.7-11.4-11.5-20.2l.5-23c-10.2 7.2-17.7 15.6-25.5 24.6l-17.3 19.9c-3.7 4.2-9.2 4.6-14 1.9-3.6-2.1-6.6-5.1-8.8-8.5-12.5 9-27.6 15.6-41.2 3.9-4.1-3.5-4.9-9.2-5.6-14.6-14.9 15.4-23.7 24.4-44.1 14-3.3-1.7-5.5-4.4-6.7-8.4-9.2 1.7-18.5-.2-25.6-7.4-5.9 7.1-11 13.7-17.8 18.8-6.2 4.6-14.5 5.8-20.3.5-14.7-13.7-8-37.5 1.4-52.2 5.8-9.1 11.8-17.4 18.4-25.9 1.5-1.9 5.5-3.3 7.6-3.4 3-.2 5.3 2.7 8.1 4.6z"/><path d="M1335.4 575c-9.9-2.8-15.6-11.6-16.6-19.9-3.8 3.7-6.8 6.6-10.1 9-9.5 7.1-21.5 5.3-28.9-3.6-4.3-5.1-5.4-11.4-2.5-17.8 7-15.4 16.9-29.3 28.9-41.4 3.7-3.7 9.6-6.4 14.5-5.8 6.3.8 10.2 4.9 14.8 9.7l8.7-10.6c1.2-1.4 4.1-3.4 5.8-3.3 2.2.1 5 1.9 6.9 3.4 4.9 4.1 7 9.8 4.1 15.9-8 16.6-19.4 29.5-23.8 47 11.5-5.3 20.6-11.6 30.6-18 9-5.7 18.1-12.3 25.7-19.3.8-.8 3.5-2.1 3.9-3.3l16.2-43c-10.3-2.2-35.5 4.6-39.3-.3-.9-1.1-1.1-4.9.3-5.2l3.5-.6-2.6-1.6c-.3-.2-.3-.5.2-.7l3.1-1.1c.5-.2-1.8-1.6-1.6-2 .9-2 4.4-5.3 6.6-5.5l15.7-1.6 22.3-1.3 12.6-28.7c2.1-4.9 4.8-9.3 10.9-7.8v3.1s2.3-2.9 2.3-2.9c.6-.7 3-.1 4 .3 3 1 4.7 4 3.9 7.2-2.5 9.6-6.1 18.1-10.5 28 11 .2 49.3-4.9 56.6.7 1 3.5-.7 8.6-3 10.8l-9.9-.8 9.3 2.9-5.9 1.3 3 2.5-7.3 1c-1.4 3.9-3.2 9.3-6.8 12.1-3.4 2.7-8.8 1.5-11.7-.5-3.7-2.5-3.6-6.6-3.5-12.2l-23.4 1.2c-4.1.2-6.5 1.2-8 5.3l-28.9 74.8c-7 18.1-14.3 36-18.5 54.5l2.9 3.6 1.8-.3c.7-.1 1.4 3.2 1 3.9-4.7 7.2-18.6 11.3-25.9 3.6-7.1-7.5 12-53.3 16.2-65l-29.5 18.7c-5 3.1-11.8 5-18 3.3z"/><path fill="#fff" d="M1380.6 598.9c4.9-21.3 12.9-41.6 22.2-60.3l-22.2 60.3z"/><path fill="#fff" d="M1426.9 472.7l2.2.9-21.2 55-2.2-.9 21.2-55zm-39.3 66.9c3.2 1.2-29 21.7-31.9 21.7l31.9-21.7z"/><path d="M1575.1 571.5c-4.8 5.5-10.9 5.1-16.2 1.6-4.2-2.7-7.6-6.2-6.9-12-8.3.3-16.3-1.6-22.8-8.1-8.2 10.3-24.4 31.4-38.1 19.3-6.1-5.4-7.8-13-9-21.2-10.2 8.3-37.7 34.1-48.8 21.4-6.9-7.9-7.4-19.8-3.6-29.7 6.2-16 13.6-30.7 21.5-45.9 1-2 5-4.2 7-4.3 2.2-.1 5.3 1.9 7.2 3.5 4.9 4.1 6.8 9.8 3.9 15.8-8.1 16.6-18.7 28.6-23.9 46.7 7-2.4 41.6-31.7 43.9-34.8l21.3-29.1c1.9-2.5 5.2-3.8 7.9-4.2 3.5-.4 5.6 3.3 8.3 4.8 4.7 2.6 8.9 4.4 11.1 10.1 4.2 10.8 3.8 22.7-.6 34 1.5 1.4 4.8 2.3 6.8 2 11.5-1.8 19.4-9.7 23.7-19.9l9.3-22.2c1.3-3 4.2-8.2 7.7-8.8 6-1 12.7 4.6 14.9 9.4l-9.5 23.1c7.5-5.3 12.9-11.2 21.4-13.3 11.9-2.9 24.6 7.2 24.5 19.4l-.3 27.3c16-11 28.2-22.8 41.8-35.8-.9 2.4-.6 5.6.9 6 2.4-2.1 4.3-3.9 5.9-4.1-7.1 7.4-13.1 14.1-20.9 20.7 1.7-6.4 7.4-7.5 11.2-13.3 1.3.3 0 0-.5-.1l-11.3 11c-.3.3-.3.7.3 2.4l-7.1 7c-2.3 2.3-5.2 3.4-6.6 6.8 5.4-3.7 9.9-7.6 14.5-12l22.6-21.7 3.5 3.6c1 1 2 2.2 2.6 3s-.5 3.6-1.1 4.3c-9.8 10.2-36.4 38.1-49.8 39.8-11.9 1.5-23.7-8.5-24.6-20.2-.7-9 .2-16.8.4-26.1-9.7 6.8-16.7 14.4-23.9 22.6l-18.3 21.2z"/><path d="M785 648.9c-10.6-6.7-.9-15.1-1-21.1 0-4.8 3.8-5.2 5.4-8.1 7.4-13.3 13.4-26.9 20.1-41.8-6.6-.3-27.7 4.6-28-6.9-.1-4.1.8-12.2 4.9-14.3s8.4-3.4 13.7-5.3c0 1.7-2.3 3-4.6 4.9l6.1-1.9.8 1.4c.3.5 2.4 1 3.3.9l14.8-2.8 39.7-80.3-35.6 4.5c-3.3.4-8.3.7-10.9-1.2-3.3-2.4-5.9-8.2-5.6-11.9.2-1.9.4-3.7.4-4.9 1.3-5.8 8.9-3.6 12.9-4.1l50.8-6.1 11-1.1 11.2-.9 15.1-1 40.5-.4c12.1-.1 16.7 13.2 15 20.5-.6 2.5-4.5 5.2-6.6 6.1-.6-2.5-.7-2.8-2.2-.1l-4.9-5c-24.6.1-49.1-.4-73.3 3.8 2.2 5 2 7.3.2 11l-33.2 66.8c17.8-1.7 34-3.3 51.4-3.9 4.2-.2 7.6 3.5 7.2 7.6-.3 3.5-1.3 7.9-2.3 10.5-2.7 7.1-7.8 5.1-13 5-18.3-.2-35.9 1.9-54.2 4.4L793.1 611c-6 13.1-12.1 25.1-19.5 37.9-1-1.5-.7-2.4-.8-5l-2.4 5.7c-.4 0-2.8-.9-4-1.5-.9-.4.1-2.2.8-3.7l-2.7 1.7c-.4.3-.6-1.4-.8-2.4z"/><path d="M428.5 621.1c-25.9 16.7-55.1 20.9-85.6 17-12.2-1.6-23.5-5.9-30.9-15.5-5.6-7.2-7.2-16.7-2.1-24.6 1.5-2.4 6.3-.2 7.4 2.1 2.2 4.6 5.3 8.3 10 10.3 8.4 3.6 17.2 5.5 26.5 5.9 28.5 1.3 58.7-4.2 79.8-24.5 5.4-5.2 10-11.8 11.9-19 8-29.2-17.8-52.9-38-69.8-6.4-5.4-12.8-11.1-16.3-18.9-7.8-17.1-1.5-36.8 14-47.3 17.2-11.5 36-18.8 56.2-23.6 13.2-3.1 45.1-11.1 54.3 1.1 4.1 5.4 3.4 14.8-.8 19.8-2.6 2.1-6.4 3.6-8.7 5.6l-3.2 2.9c-.9.8-4.3.1-4.8-1.1-1.1-2.7-1.9-6.9-2.5-11.1-8.3.2-16.6 1.8-24.8 3.7-20.7 4.7-40.1 11.3-58.1 22.5-4.4 2.7-9 6.7-11.1 11.3 2.7 5.2 6.7 9.4 10.9 12.8 28 23.2 49.1 45.6 47.2 85-1.1 23.1-12 43-31.4 55.5z"/><path d="M581.7 558.1c-12.7 7.1-32 25.4-46.3 20.8-8.8-2.9-14.1-10.4-16.1-19.1-3.5 2.9-6.9 5.9-10.3 8.5-9.1 6.8-20.6 5.1-27.9-2.9-5.1-5.6-6.1-12.5-2.7-19.7 7.1-14.8 16.6-28.3 28.1-40 3.9-4 9.9-6.8 15.2-6 6.2.9 10 5.1 14.4 9.6l8.8-10.7c1.2-1.4 4.4-3.4 6.1-3.2 1.9.2 4.5 1.8 6.2 3.2 5.3 4.2 7.4 10.4 4.1 16.7-8.3 16.4-18.7 28.5-23.7 46.3 11.1-4.9 20.1-11.1 29.7-17.3 7.8-5.1 15.4-9.9 22.3-16 2.4-2.2 5.7-4.2 7.7-6.4l14.2-16.1c3.5-3.9 9.2-6.5 14.5-6.1 6 .4 10.5 4.8 14.5 8.8 2.8-4 5.5-9.8 9-13.1 5.9-5.1 15.3-3.4 20.5 1.5-1.5 5.9-3.9 10-6.3 14.9-8.2 16.8-14.8 33.7-22.1 51.1L620 594.3l62.8.7c9.3.1 16.6 5.4 18.1 14.8.1 2.3-2.7 6.5-4.8 5.5-4.4-2.1-7.9-3.5-12.6-3.4-10.7.3-20.7.4-31.3.1l-40.9-1c-9.5 14-18.4 29.8-35.1 34.5-21.7 6.1-34.2-11.2-44-27.6-2.6-4.3-1.2-8.8 2.1-12.2 6.5-6.6 15.3-9.1 24.7-9.6l38.2-1.9 6.9-14.1 16.4-41.1c-5.5 5-12.3 8-19.4 6.8-7.5-1.3-13.3-6.6-16.8-14.2z"/><path d="M788.2 530.8c4.5 4.7-6.8 13.8-10.8 16.6-13.3 9.6-26.4 18.5-40.3 27.1-5.8 3.6-12.9 6.3-19.5 4.7-9.4-2.2-15.2-10-17.5-19.2l-9.8 7.9c-8.8 7.1-20.4 5.7-27.9-2.1-5.4-5.5-6.7-12.6-3.3-19.9 6.9-14.9 16.6-28.3 28.1-40.2 3.9-4 9.9-6.9 15.2-6.1 6.2.9 10.1 5.1 14.5 9.6l9.2-11.1c3.6-4.4 8.3-2.7 11.9.3 5.4 4.5 7.2 10.1 4.3 16.9l-9.8 17c-5.3 9.3-10.8 17.6-14 29.1 11.7-4.9 21.2-11.9 31.5-18.4 9.1-5.8 17.4-11.4 25-19.2l4.9-.8-1.1 5.9 5-3.8-1.6 4.6 4.3-2-.4 2.8c-.1.4.8.2 2.1.3z"/></svg>
